<svg xmlns="http://www.w3.org/2000/svg" 
  width="504" 
  height="479.969" 
  viewBox="0 0 504 479.969">
  <path 
    id="Фигура_3"
    data-name="Фигура 3"
    class="cls-1"
    fill = "#7E3902"
    stroke = "#fff"
    stroke-width = "4px"
    d="M340.205,301.585c-6.755,7.538-8.381,23.61-8.2,49.192,0.33,47.944.588,65.744,9.573,72.423,0,0,34.057,3.625,46.5,0,21.881-6.377,11.833-45.192,16.41-56.025,10.846-7.675,50.217-7.882,92.994-4.1,112.622,9.958,177.2,33.809,214.093,53.3,18.03,8.442,30.718,16.563,19.759,31.416-18.782,25.455-62.337,63.965-113.507,87.453-22.97,10.544-43.751,19.613-46.5,34.162,0,14.989,30.5,43.632,53.335,46.46,10.416,1.29,22.682-9.059,25.983-10.932,28.413-16.124,62.089-45.461,99.831-80.621,27.593-27.145,51.179-52.384,65.643-80.622,26.8-43.841,16.4-61.8-6.838-76.522-10.762-10.618-49.5-19.242-123.08-30.062-39.007-5.736-141.34-22.657-151.8-23.23-37.563-2.057-100.354-5.574-135.388-2.733,0,0,.684-7.516-1.367-12.3C395.1,292.927,344.91,297.875,340.205,301.585Zm153.166-88.821c-12.965-7.6-1.367-48.737,2.735-56.025s13.676-13.209,25.984-15.031c13.22-5.921,130.829,4.555,153.166,16.4,8.205,4.1,20.969,9.109,25.984,16.4S714,204.11,705.342,219.6c-3.647,7.287-10.484,16.424-20.513,16.4-10.387-.028-46.041-28.24-64.275-32.795s-49.212-3.046-61.54-1.366C548.985,203.2,517.531,214.586,493.371,212.764Z" transform="translate(-330 -138)"/>
  </svg>
