<svg xmlns="http://www.w3.org/2000/svg" xmlns:xlink="http://www.w3.org/1999/xlink" width="64" height="60.969" viewBox="0 0 64 60.969">
  <metadata><?xpacket begin="﻿" id="W5M0MpCehiHzreSzNTczkc9d"?>
<x:xmpmeta xmlns:x="adobe:ns:meta/" x:xmptk="Adobe XMP Core 5.6-c142 79.160924, 2017/07/13-01:06:39        ">
   <rdf:RDF xmlns:rdf="http://www.w3.org/1999/02/22-rdf-syntax-ns#">
      <rdf:Description rdf:about=""/>
   </rdf:RDF>
</x:xmpmeta>
                                                                                                    
                                                                                                    
                                                                                                    
                                                                                                    
                                                                                                    
                                                                                                    
                                                                                                    
                                                                                                    
                                                                                                    
                                                                                                    
                                                                                                    
                                                                                                    
                                                                                                    
                                                                                                    
                                                                                                    
                                                                                                    
                                                                                                    
                                                                                                    
                                                                                                    
                                                                                                    
                           
<?xpacket end="w"?></metadata>
<defs>
    <style>
      .cls-1 {
        stroke: #fff;
        stroke-width: 1px;
        fill-rule: evenodd;
        fill: url(#linear-gradient);
      }
    </style>
    <linearGradient id="linear-gradient" x1="110.516" y1="67" x2="170.484" y2="7.031" gradientUnits="userSpaceOnUse">
      <stop offset="0" stop-color="#82572c"/>
      <stop offset="0.28" stop-color="#82572c"/>
      <stop offset="0.468" stop-color="#a26c35"/>
      <stop offset="0.704" stop-color="#6b4117"/>
      <stop offset="0.981" stop-color="#6b4117"/>
    </linearGradient>
  </defs>
  <path id="Фигура_3" data-name="Фигура 3" class="cls-1" d="M110.034,27.387c-0.851.95-1.056,2.975-1.034,6.2,0.042,6.042.074,8.284,1.206,9.126,0,0,4.291.457,5.859,0,2.757-.8,1.491-5.695,2.067-7.06,1.367-.967,6.328-0.993,11.718-0.517,14.19,1.255,22.326,4.261,26.975,6.717,2.272,1.064,3.871,2.087,2.49,3.959-2.367,3.208-7.854,8.06-14.3,11.02-2.894,1.329-5.513,2.472-5.859,4.3,0,1.889,3.843,5.5,6.721,5.855,1.312,0.162,2.858-1.142,3.274-1.377,3.58-2.032,7.823-5.729,12.578-10.159,3.477-3.42,6.449-6.6,8.271-10.159,3.377-5.525,2.067-7.788-.861-9.643-1.356-1.338-6.237-2.425-15.508-3.788-4.915-.723-17.809-2.855-19.127-2.927-4.733-.259-12.645-0.7-17.059-0.344a3.92,3.92,0,0,0-.172-1.55C116.951,26.3,110.627,26.92,110.034,27.387Zm19.3-11.192c-1.634-.958-0.173-6.142.344-7.06a4.443,4.443,0,0,1,3.274-1.894c1.666-.746,16.485.574,19.3,2.066,1.034,0.517,2.642,1.148,3.274,2.066s1.608,3.731.517,5.682c-0.459.918-1.321,2.07-2.585,2.066-1.308,0-5.8-3.559-8.1-4.133a26.083,26.083,0,0,0-7.754-.172C136.34,14.989,132.377,16.424,129.333,16.195Z" transform="translate(-108.5 -6.531)"/>
</svg>
